<svg fill="none" height="88" viewBox="0 0 220 88" width="220" xmlns="http://www.w3.org/2000/svg" xmlns:xlink="http://www.w3.org/1999/xlink"><mask id="a" height="17" maskUnits="userSpaceOnUse" width="25" x="98" y="58"><path d="m98.7755 58.3673h23.3465v16.1633h-23.3465z" fill="#fff"/></mask><mask id="b" height="17" maskUnits="userSpaceOnUse" width="25" x="98" y="14"><path d="m98.7755 14.3673h23.3465v16.1633h-23.3465z" fill="#fff"/></mask><path d="m220 66c0-12.1503-9.85-22-22-22s-22 9.8497-22 22 9.85 22 22 22 22-9.8497 22-22z" fill="#f8f8f7"/><path clip-rule="evenodd" d="m190.457 64.1947c0 2.0993.79 3.9665 2.484 4.6625.278.1139.526.004.607-.3058.056-.2138.188-.7543.247-.9795.081-.3058.05-.413-.175-.6799-.487-.5799-.8-1.3302-.8-2.3936 0-3.0835 2.293-5.8445 5.971-5.8445 3.256 0 5.045 2.0027 5.045 4.6766 0 3.5186-1.548 6.4888-3.844 6.4888-1.269 0-2.219-1.056-1.914-2.3507.364-1.5461 1.07-3.2149 1.07-4.3306 0-.999-.533-1.8317-1.635-1.8317-1.296 0-2.339 1.3497-2.339 3.1579 0 1.1526.387 1.931.387 1.931s-1.327 5.6595-1.56 6.6504c-.463 1.9739-.069 4.3929-.036 4.637.02.1448.204.1797.288.0704.12-.1576 1.664-2.0765 2.19-3.9933.148-.5431.852-3.3544.852-3.3544.422.8086 1.653 1.5206 2.962 1.5206 3.899 0 6.543-3.5763 6.543-8.3635 0-3.6198-3.047-6.991-7.677-6.991-5.761 0-8.666 4.157-8.666 7.6233z" fill="#222" fill-rule="evenodd"/><path d="m176 66c0-12.1503-9.85-22-22-22s-22 9.8497-22 22 9.85 22 22 22 22-9.8497 22-22z" fill="#f8f8f7"/><path clip-rule="evenodd" d="m164.686 60.8724c-.694.3017-1.44.5082-2.223.5997.799-.4714 1.413-1.2172 1.702-2.1073-.748.4356-1.577.7533-2.457.9259-.706-.742-1.711-1.205-2.823-1.205-2.137 0-3.869 1.7066-3.869 3.8092 0 .2998.033.5892.1.8664-3.216-.1574-6.067-1.6726-7.974-3.9779-.334.562-.524 1.2173-.524 1.915 0 1.3219.681 2.4863 1.72 3.1689-.633-.0188-1.23-.1904-1.75-.4752-.002.0151-.002.0311-.002.0481 0 1.8461 1.334 3.3839 3.105 3.7337-.327.0886-.667.1348-1.021.1348-.25 0-.492-.0254-.728-.0697.493 1.5133 1.921 2.6155 3.614 2.6456-1.323 1.0211-2.993 1.6302-4.805 1.6302-.311 0-.621-.0179-.922-.0528 1.712 1.0805 3.746 1.7113 5.93 1.7113 7.116 0 11.008-5.8042 11.008-10.8372 0-.165-.004-.3281-.012-.4922.756-.5374 1.412-1.2078 1.931-1.9715z" fill="#222" fill-rule="evenodd"/><path d="m132 66c0-12.1503-9.85-22-22-22-12.1503 0-22 9.8497-22 22s9.8497 22 22 22c12.15 0 22-9.8497 22-22z" fill="#f8f8f7"/><g mask="url(#a)"><path clip-rule="evenodd" d="m121.635 60.8912c-.269-.9934-1.06-1.7758-2.065-2.0413-1.82-.4826-9.121-.4826-9.121-.4826s-7.301 0-9.122.4826c-1.004.2655-1.7953 1.0479-2.0637 2.0413-.4878 1.8007-.4878 5.5578-.4878 5.5578s0 3.757.4878 5.5575c.2684.9935 1.0597 1.776 2.0637 2.0415 1.821.4826 9.122.4826 9.122.4826s7.301 0 9.121-.4826c1.005-.2655 1.796-1.048 2.065-2.0415.487-1.8005.487-5.5575.487-5.5575s0-3.7571-.487-5.5578z" fill="#222" fill-rule="evenodd"/></g><path clip-rule="evenodd" d="m107.755 70.0408v-7.1837l7.184 3.5919z" fill="#f2f3ef" fill-rule="evenodd"/><path d="m88 66c0-12.1503-9.8497-22-22-22s-22 9.8497-22 22 9.8497 22 22 22 22-9.8497 22-22z" fill="#f8f8f7"/><path clip-rule="evenodd" d="m64.0954 76.6857v-9.4397h-2.4954v-3.3965h2.4954v-2.9035c0-2.2797 1.4735-4.3746 4.8713-4.3746 1.3747 0 2.3901.1322 2.3901.1322l-.0783 3.1719s-1.0372-.009-2.1706-.009c-1.2233 0-1.4197.5648-1.4197 1.5005v2.4825h3.6878l-.1604 3.3965h-3.5274v9.4397z" fill="#222" fill-rule="evenodd"/><path d="m44 66c0-12.1503-9.8497-22-22-22-12.15026 0-22 9.8497-22 22s9.84974 22 22 22c12.1503 0 22-9.8497 22-22z" fill="#f8f8f7"/><path d="m25.3122 56.3676h-6.6244c-3.4905 0-6.3202 2.8297-6.3202 6.3202v6.6244c0 3.4905 2.8297 6.3202 6.3202 6.3202h6.6244c3.4905 0 6.3202-2.8297 6.3202-6.3202v-6.6244c0-3.4905-2.8297-6.3202-6.3202-6.3202z" stroke="#222" stroke-width="2.10672"/><path d="m27.5752 61.8186c.7697 0 1.3937-.624 1.3937-1.3938 0-.7697-.624-1.3937-1.3937-1.3937-.7698 0-1.3938.624-1.3938 1.3937 0 .7698.624 1.3938 1.3938 1.3938z" fill="#222"/><path d="m22 71.1106c2.8225 0 5.1106-2.2881 5.1106-5.1106s-2.2881-5.1106-5.1106-5.1106-5.1106 2.2881-5.1106 5.1106 2.2881 5.1106 5.1106 5.1106z" stroke="#222" stroke-width="2.10672"/><path d="m220 22c0-12.15026-9.85-22-22-22s-22 9.84974-22 22c0 12.1503 9.85 22 22 22s22-9.8497 22-22z" fill="#f8f8f7"/><path clip-rule="evenodd" d="m190.457 20.1947c0 2.0993.79 3.9665 2.484 4.6625.278.1139.526.004.607-.3058.056-.2138.188-.7543.247-.9795.081-.3058.05-.413-.175-.6799-.487-.5799-.8-1.3302-.8-2.3936 0-3.0835 2.293-5.8445 5.971-5.8445 3.256 0 5.045 2.0027 5.045 4.6766 0 3.5186-1.548 6.4888-3.844 6.4888-1.269 0-2.219-1.056-1.914-2.3507.364-1.5461 1.07-3.2149 1.07-4.3306 0-.999-.533-1.8317-1.635-1.8317-1.296 0-2.339 1.3497-2.339 3.1579 0 1.1526.387 1.931.387 1.931s-1.327 5.6595-1.56 6.6504c-.463 1.9739-.069 4.3929-.036 4.637.02.1448.204.1797.288.0704.12-.1576 1.664-2.0765 2.19-3.9933.148-.5431.852-3.3544.852-3.3544.422.8086 1.653 1.5206 2.962 1.5206 3.899 0 6.543-3.5763 6.543-8.3635 0-3.6198-3.047-6.991-7.677-6.991-5.761 0-8.666 4.157-8.666 7.6233z" fill="#666" fill-rule="evenodd"/><path d="m176 22c0-12.15026-9.85-22-22-22s-22 9.84974-22 22c0 12.1503 9.85 22 22 22s22-9.8497 22-22z" fill="#f8f8f7"/><path clip-rule="evenodd" d="m164.686 16.8724c-.694.3017-1.44.5082-2.223.5997.799-.4714 1.413-1.2172 1.702-2.1073-.748.4356-1.577.7533-2.457.9259-.706-.742-1.711-1.205-2.823-1.205-2.137 0-3.869 1.7066-3.869 3.8092 0 .2998.033.5892.1.8664-3.216-.1574-6.067-1.6726-7.974-3.9779-.334.562-.524 1.2173-.524 1.915 0 1.3219.681 2.4863 1.72 3.1689-.633-.0188-1.23-.1904-1.75-.4752-.002.0151-.002.0311-.002.0481 0 1.8461 1.334 3.3839 3.105 3.7337-.327.0886-.667.1348-1.021.1348-.25 0-.492-.0254-.728-.0697.493 1.5133 1.921 2.6155 3.614 2.6456-1.323 1.0211-2.993 1.6302-4.805 1.6302-.311 0-.621-.0179-.922-.0528 1.712 1.0805 3.746 1.7113 5.93 1.7113 7.116 0 11.008-5.8042 11.008-10.8372 0-.165-.004-.3281-.012-.4922.756-.5374 1.412-1.2078 1.931-1.9715z" fill="#666" fill-rule="evenodd"/><path d="m132 22c0-12.15026-9.85-22-22-22-12.1503 0-22 9.84974-22 22 0 12.1503 9.8497 22 22 22 12.15 0 22-9.8497 22-22z" fill="#f8f8f7"/><g mask="url(#b)"><path clip-rule="evenodd" d="m121.635 16.8912c-.269-.9934-1.06-1.7758-2.065-2.0413-1.82-.4826-9.121-.4826-9.121-.4826s-7.301 0-9.122.4826c-1.004.2655-1.7953 1.0479-2.0637 2.0413-.4878 1.8007-.4878 5.5578-.4878 5.5578s0 3.757.4878 5.5575c.2684.9935 1.0597 1.776 2.0637 2.0415 1.821.4826 9.122.4826 9.122.4826s7.301 0 9.121-.4826c1.005-.2655 1.796-1.048 2.065-2.0415.487-1.8005.487-5.5575.487-5.5575s0-3.7571-.487-5.5578z" fill="#666" fill-rule="evenodd"/></g><path clip-rule="evenodd" d="m107.755 26.0408v-7.1837l7.184 3.5919z" fill="#f2f3ef" fill-rule="evenodd"/><path d="m88 22c0-12.15026-9.8497-22-22-22s-22 9.84974-22 22c0 12.1503 9.8497 22 22 22s22-9.8497 22-22z" fill="#f8f8f7"/><path clip-rule="evenodd" d="m64.0954 32.6857v-9.4397h-2.4954v-3.3965h2.4954v-2.9035c0-2.2797 1.4735-4.3746 4.8713-4.3746 1.3747 0 2.3901.1322 2.3901.1322l-.0783 3.1719s-1.0372-.009-2.1706-.009c-1.2233 0-1.4197.5648-1.4197 1.5005v2.4825h3.6878l-.1604 3.3965h-3.5274v9.4397z" fill="#666" fill-rule="evenodd"/><path d="m44 22c0-12.15026-9.8497-22-22-22-12.15026 0-22 9.84974-22 22 0 12.1503 9.84974 22 22 22 12.1503 0 22-9.8497 22-22z" fill="#f8f8f7"/><path d="m25.3122 12.3676h-6.6244c-3.4905 0-6.3202 2.8297-6.3202 6.3202v6.6244c0 3.4905 2.8297 6.3202 6.3202 6.3202h6.6244c3.4905 0 6.3202-2.8297 6.3202-6.3202v-6.6244c0-3.4905-2.8297-6.3202-6.3202-6.3202z" stroke="#666" stroke-width="2.10672"/><path d="m27.5752 17.8186c.7697 0 1.3937-.624 1.3937-1.3938 0-.7697-.624-1.3937-1.3937-1.3937-.7698 0-1.3938.624-1.3938 1.3937 0 .7698.624 1.3938 1.3938 1.3938z" fill="#666"/><path d="m22 27.1106c2.8225 0 5.1106-2.2881 5.1106-5.1106s-2.2881-5.1106-5.1106-5.1106-5.1106 2.2881-5.1106 5.1106 2.2881 5.1106 5.1106 5.1106z" stroke="#666" stroke-width="2.10672"/></svg>