<?xml version="1.0" encoding="utf-8"?><svg width="223" height="178" viewBox="0 0 223 178" xmlns="http://www.w3.org/2000/svg" xmlns:xlink="http://www.w3.org/1999/xlink"><view id="SiteLogoBlack" viewBox="0 0 222.2 40.7"/><svg viewBox="0 0 222.2 40.7" width="222.2" height="40.7" xmlns="http://www.w3.org/2000/svg"><path d="M35.5 3.2v28.9" fill="none" stroke="#000" stroke-miterlimit="10" stroke-width=".5"/><path d="M69.7 31.1v-8.3c-.9.5-1.6.9-2.3 1.3-.7.3-1.3.6-1.8.8s-1 .3-1.5.4-.9.1-1.5.1c-1.2 0-2.4-.3-3.5-.8-1.1-.6-2-1.3-2.8-2.3-.5-.8-1-1.6-1.3-2.6-.3-.9-.5-2-.5-3.2 0-1.1.1-2.1.4-3 .2-.9.6-1.7 1-2.3.4-.7.9-1.2 1.5-1.5.6-.4 1.3-.5 2-.5 2.3 0 3.6 1.7 4 5.2h6.1V2.9h-6.1v1c-1.1-.6-2.1-1-3.2-1.2-1-.2-2.1-.4-3.4-.4-1.8 0-3.5.3-5.2.9s-3.1 1.5-4.4 2.6c-1.4 1.3-2.4 2.8-3.1 4.7S43 14.6 43 17c0 2.5.4 4.7 1.2 6.7s1.9 3.8 3.3 5.2 3.1 2.6 5.1 3.4 4.2 1.2 6.6 1.2c1 0 1.9 0 2.7-.1s1.7-.2 2.4-.4c.8-.2 1.6-.4 2.4-.7 1.2-.3 2.1-.7 3-1.2m25.9-12.7c-.6-1.4-1.5-2.5-2.6-3.5-1.1-.9-2.4-1.7-3.9-2.2s-3.2-.8-5-.8-3.4.3-4.9.8-2.8 1.3-4 2.3c-1.1 1-2 2.1-2.6 3.4s-.9 2.7-.9 4.3c0 1.5.3 3 .9 4.3s1.5 2.4 2.6 3.4c1.1.9 2.4 1.7 4 2.2 1.5.5 3.2.8 5 .8s3.5-.3 5-.8 2.8-1.2 3.9-2.2c1.1-.9 2-2.1 2.6-3.4s.9-2.7.9-4.3c-.1-1.5-.4-3-1-4.3m-9.1 7.2c-.2.6-.6 1-1 1.4s-.9.5-1.4.5c-.9 0-1.6-.5-2-1.4-.5-.9-.7-2.2-.7-4 0-1.5.2-2.7.7-3.5s1.1-1.2 2-1.2c.5 0 1 .2 1.5.5.4.4.8.8 1 1.4s.3 1.7.3 3.4c-.1 1.4-.2 2.4-.4 2.9m35.3-7.2c-.6-1.3-1.4-2.5-2.5-3.4s-2.4-1.7-3.9-2.2-3.2-.8-5.1-.8c-1.8 0-3.4.3-4.9.8s-2.8 1.3-4 2.3c-1.1 1-2 2.1-2.6 3.4s-.9 2.7-.9 4.3c0 1.5.3 3 .9 4.3s1.5 2.4 2.6 3.4c1.1.9 2.4 1.7 4 2.2 1.5.5 3.2.8 5 .8s3.5-.3 5-.8 2.8-1.2 3.9-2.2c1.1-.9 2-2.1 2.6-3.4s.9-2.7.9-4.3c-.1-1.6-.4-3.1-1-4.4m-9.1 7.2c-.2.6-.6 1-1 1.4s-.9.5-1.4.5c-.9 0-1.6-.5-2-1.4-.5-.9-.7-2.2-.7-4 0-1.5.2-2.7.7-3.5s1.1-1.2 2-1.2c.5 0 1 .2 1.5.5.4.4.8.8 1 1.4s.3 1.7.3 3.4c-.1 1.4-.2 2.4-.4 2.9m38.4 7.4v-5.6h-1.6l-5.5-5.8 4-3.7h2.3v-5.6h-12.5V18h3.1l-5.7 4.9v-20h-11.5v5.6h1.8v19h-1.8V33h11.5v-8.5l7.7 8.5zM164 2.9h-9.7v7.3h9.7zm1.8 30.1v-5.6H164v-15h-11.4V18h1.7v9.5h-1.7V33zm29 0v-5.6H193v-9.2c0-.9-.2-1.7-.6-2.5s-.9-1.4-1.5-2-1.4-1-2.3-1.3-1.9-.5-2.9-.5c-1.3 0-2.6.3-4 .9-.3.1-.7.3-1 .6-.4.2-.9.6-1.6 1.1l-.4.3v-2.4h-11.4V18h1.7v9.5h-1.7V33h13.1v-5.6h-1.7v-6.2c0-1 .2-1.8.6-2.4s1-.9 1.7-.9c.6 0 1.1.2 1.5.7.4.4.6 1 .6 1.7V33zm27.4-15v-5.6H211V14c-.5-.4-1-.7-1.4-1s-.9-.5-1.3-.6c-.4-.2-.9-.3-1.4-.3-.5-.1-1-.1-1.6-.1-1.4 0-2.6.3-3.8.8-1.1.5-2.1 1.2-2.9 2.1s-1.4 2-1.9 3.3c-.4 1.3-.7 2.7-.7 4.3 0 2.3.5 4.3 1.5 6.1.8 1.4 1.9 2.5 3.1 3.3s2.6 1.2 4 1.2c.7 0 1.5-.1 2.2-.3s1.4-.5 2-.9c.3-.2.6-.5.9-.7l1.2-1.2c-.1 1.9-.7 3.3-1.8 4.3s-2.7 1.5-4.6 1.5c-2.1 0-4.2-.5-6.4-1.6v5.5l.4.1c1.6.5 2.9.8 4.1.9s2.4.2 3.7.2c5.4 0 9.4-1.6 11.8-4.8.5-.6.9-1.2 1.2-1.9s.5-1.4.7-2.3c.1-.6.2-1.2.3-1.9s.1-1.2.1-1.7V18zm-12 8c-.4.7-1 1.1-1.8 1.1-.9 0-1.6-.4-2.1-1.2s-.7-2-.7-3.5c0-3.3.8-4.9 2.5-4.9.7 0 1.3.3 1.8.9.3.3.5.9.6 1.8.1.4.1.8.1 1.2v1.1c.2 1.6 0 2.8-.4 3.5M27.3 22c-1.1 2.9-3.2 5.2-6.1 6.4V22l3.5-3.2-3.5-3.1v-4.4c3.2-.2 5.4-2.6 5.4-5.5C26.6 2 23 .7 20.9.7c-.4 0-.9 0-1.6.2v.2h.8c1.4 0 2.5.7 2.5 2 0 1-.8 2-2.2 2-3.5 0-7.7-2.9-12.2-2.9-4 0-6.8 3-6.8 6s1.7 4 3.6 4.6v-.2c-.6-.4-1-1-1-2 0-1.3 1.2-2.5 2.8-2.5 3.8 0 9.9 3.2 13.7 3.2h.4v4.5l-3.5 3.1 3.5 3.2v6.5c-1.5.5-3 .8-4.5.8-5.9 0-9.6-3.6-9.6-9.5 0-1.4.2-2.8.6-4.1l2.9-1.3v13.1l6-2.6V11.4l-8.8 3.9c.9-2.6 2.7-4.5 4.9-5.5v-.1C6.4 11 .7 15.4.7 22.1c0 7.7 6.5 13.1 14.1 13.1 8 0 12.6-5.3 12.6-13.1h-.1z"/></svg><view id="badge-appstore" viewBox="0 80.7 119.664 40"/><svg height="40" width="119.664" viewBox="0 0 119.664 40" y="80.7" xmlns="http://www.w3.org/2000/svg"><path d="M110.135 0H9.535c-.367 0-.73 0-1.095.002-.306.002-.61.008-.919.013A13.215 13.215 0 005.517.19a6.665 6.665 0 00-1.9.627 6.438 6.438 0 00-1.62 1.18A6.258 6.258 0 00.82 3.617a6.601 6.601 0 00-.625 1.903 12.993 12.993 0 00-.179 2.002c-.01.307-.01.615-.015.921V31.56c.005.31.006.61.015.921a12.992 12.992 0 00.18 2.002 6.588 6.588 0 00.624 1.905A6.208 6.208 0 001.998 38a6.274 6.274 0 001.618 1.179 6.7 6.7 0 001.901.63 13.455 13.455 0 002.004.177c.31.007.613.011.919.011.366.002.728.002 1.095.002h100.6c.36 0 .724 0 1.084-.002.304 0 .617-.004.922-.01a13.279 13.279 0 002-.178 6.804 6.804 0 001.908-.63A6.277 6.277 0 00117.666 38a6.395 6.395 0 001.182-1.614 6.604 6.604 0 00.619-1.905 13.506 13.506 0 00.185-2.002c.004-.31.004-.61.004-.921.008-.364.008-.725.008-1.094V9.536c0-.366 0-.73-.008-1.092 0-.306 0-.614-.004-.92a13.507 13.507 0 00-.185-2.003 6.618 6.618 0 00-.62-1.903 6.466 6.466 0 00-2.798-2.8 6.768 6.768 0 00-1.908-.627 13.044 13.044 0 00-2-.176c-.305-.005-.618-.011-.922-.013-.36-.002-.725-.002-1.084-.002z" fill="#a6a6a6"/><path d="M8.445 39.125c-.305 0-.602-.004-.904-.01a12.687 12.687 0 01-1.87-.164 5.884 5.884 0 01-1.656-.548 5.406 5.406 0 01-1.397-1.016 5.32 5.32 0 01-1.02-1.397 5.722 5.722 0 01-.544-1.657 12.414 12.414 0 01-.166-1.875c-.007-.21-.015-.913-.015-.913v-23.1s.009-.692.015-.895a12.37 12.37 0 01.165-1.872 5.755 5.755 0 01.544-1.662 5.373 5.373 0 011.015-1.398 5.565 5.565 0 011.402-1.023 5.823 5.823 0 011.653-.544A12.586 12.586 0 017.543.887l.902-.012h102.769l.913.013a12.385 12.385 0 011.858.162 5.938 5.938 0 011.671.548 5.594 5.594 0 012.415 2.42 5.763 5.763 0 01.535 1.649 12.995 12.995 0 01.174 1.887c.003.283.003.588.003.89.008.375.008.732.008 1.092v20.929c0 .363 0 .718-.008 1.075 0 .325 0 .623-.004.93a12.731 12.731 0 01-.17 1.853 5.739 5.739 0 01-.54 1.67 5.48 5.48 0 01-1.016 1.386 5.413 5.413 0 01-1.4 1.022 5.862 5.862 0 01-1.668.55 12.542 12.542 0 01-1.869.163c-.293.007-.6.011-.897.011l-1.084.002z"/><g fill="#fff"><path d="M24.769 20.3a4.949 4.949 0 012.356-4.151 5.066 5.066 0 00-3.99-2.158c-1.68-.176-3.308 1.005-4.164 1.005-.872 0-2.19-.988-3.608-.958a5.315 5.315 0 00-4.473 2.728c-1.934 3.348-.491 8.269 1.361 10.976.927 1.325 2.01 2.805 3.428 2.753 1.387-.058 1.905-.885 3.58-.885 1.658 0 2.144.885 3.59.852 1.489-.025 2.426-1.332 3.32-2.67a10.962 10.962 0 001.52-3.092 4.782 4.782 0 01-2.92-4.4zM22.037 12.21a4.872 4.872 0 001.115-3.49 4.957 4.957 0 00-3.208 1.66A4.636 4.636 0 0018.8 13.74a4.1 4.1 0 003.237-1.53zM42.302 27.14H37.57l-1.137 3.356h-2.005l4.484-12.418h2.083l4.483 12.418h-2.039zm-4.243-1.55h3.752l-1.85-5.446h-.051zM55.16 25.97c0 2.813-1.506 4.62-3.779 4.62a3.07 3.07 0 01-2.848-1.583h-.043v4.484H46.63V21.442h1.8v1.506h.033a3.212 3.212 0 012.883-1.6c2.298 0 3.813 1.816 3.813 4.622zm-1.91 0c0-1.833-.948-3.038-2.393-3.038-1.42 0-2.375 1.23-2.375 3.038 0 1.824.955 3.046 2.375 3.046 1.445 0 2.393-1.197 2.393-3.046zM65.125 25.97c0 2.813-1.506 4.62-3.779 4.62a3.07 3.07 0 01-2.848-1.583h-.043v4.484h-1.859V21.442h1.799v1.506h.034a3.212 3.212 0 012.883-1.6c2.298 0 3.813 1.816 3.813 4.622zm-1.91 0c0-1.833-.948-3.038-2.393-3.038-1.42 0-2.375 1.23-2.375 3.038 0 1.824.955 3.046 2.375 3.046 1.445 0 2.392-1.197 2.392-3.046zM71.71 27.036c.138 1.232 1.334 2.04 2.97 2.04 1.566 0 2.693-.808 2.693-1.919 0-.964-.68-1.54-2.29-1.936l-1.609-.388c-2.28-.55-3.339-1.617-3.339-3.348 0-2.142 1.867-3.614 4.519-3.614 2.624 0 4.423 1.472 4.483 3.614h-1.876c-.112-1.239-1.136-1.987-2.634-1.987s-2.521.757-2.521 1.858c0 .878.654 1.395 2.255 1.79l1.368.336c2.548.603 3.606 1.626 3.606 3.443 0 2.323-1.85 3.778-4.793 3.778-2.754 0-4.614-1.42-4.734-3.667zM83.346 19.3v2.142h1.722v1.472h-1.722v4.991c0 .776.345 1.137 1.102 1.137a5.808 5.808 0 00.611-.043v1.463a5.104 5.104 0 01-1.032.086c-1.833 0-2.548-.689-2.548-2.445v-5.189h-1.316v-1.472h1.316V19.3zM86.065 25.97c0-2.849 1.678-4.639 4.294-4.639 2.625 0 4.295 1.79 4.295 4.639 0 2.856-1.661 4.638-4.295 4.638-2.633 0-4.294-1.782-4.294-4.638zm6.695 0c0-1.954-.895-3.108-2.401-3.108s-2.4 1.162-2.4 3.108c0 1.962.894 3.106 2.4 3.106s2.401-1.144 2.401-3.106zM96.186 21.442h1.773v1.541h.043a2.16 2.16 0 012.177-1.635 2.866 2.866 0 01.637.069v1.738a2.598 2.598 0 00-.835-.112 1.873 1.873 0 00-1.937 2.083v5.37h-1.858zM109.384 27.837c-.25 1.643-1.85 2.771-3.898 2.771-2.634 0-4.269-1.764-4.269-4.595 0-2.84 1.644-4.682 4.19-4.682 2.506 0 4.08 1.72 4.08 4.466v.637h-6.394v.112a2.358 2.358 0 002.436 2.564 2.048 2.048 0 002.09-1.273zm-6.282-2.702h4.526a2.177 2.177 0 00-2.22-2.298 2.292 2.292 0 00-2.306 2.298zM37.826 8.731a2.64 2.64 0 012.808 2.965c0 1.906-1.03 3.002-2.808 3.002h-2.155V8.73zm-1.228 5.123h1.125a1.876 1.876 0 001.967-2.146 1.881 1.881 0 00-1.967-2.134h-1.125zM41.68 12.444a2.133 2.133 0 114.248 0 2.134 2.134 0 11-4.247 0zm3.334 0c0-.976-.439-1.547-1.208-1.547-.773 0-1.207.571-1.207 1.547 0 .984.434 1.55 1.207 1.55.77 0 1.208-.57 1.208-1.55zM51.573 14.698h-.922l-.93-3.317h-.07l-.927 3.317h-.913l-1.242-4.503h.902l.806 3.436h.067l.926-3.436h.852l.926 3.436h.07l.803-3.436h.889zM53.854 10.195h.855v.715h.066a1.348 1.348 0 011.344-.802 1.465 1.465 0 011.559 1.675v2.915h-.889v-2.692c0-.724-.314-1.084-.972-1.084a1.033 1.033 0 00-1.075 1.141v2.635h-.888zM59.094 8.437h.888v6.26h-.888zM61.218 12.444a2.133 2.133 0 114.247 0 2.134 2.134 0 11-4.247 0zm3.333 0c0-.976-.439-1.547-1.208-1.547-.773 0-1.207.571-1.207 1.547 0 .984.434 1.55 1.207 1.55.77 0 1.208-.57 1.208-1.55zM66.4 13.424c0-.81.604-1.278 1.676-1.344l1.22-.07v-.389c0-.475-.315-.744-.922-.744-.497 0-.84.182-.939.5h-.86c.09-.773.818-1.27 1.84-1.27 1.128 0 1.765.563 1.765 1.514v3.077h-.855v-.633h-.07a1.515 1.515 0 01-1.353.707 1.36 1.36 0 01-1.501-1.348zm2.895-.384v-.377l-1.1.07c-.62.042-.9.253-.9.65 0 .405.351.64.834.64a1.062 1.062 0 001.166-.983zM71.348 12.444c0-1.423.732-2.324 1.87-2.324a1.484 1.484 0 011.38.79h.067V8.437h.888v6.26h-.851v-.71h-.07a1.563 1.563 0 01-1.415.785c-1.145 0-1.869-.901-1.869-2.328zm.918 0c0 .955.45 1.53 1.203 1.53.75 0 1.212-.583 1.212-1.526 0-.938-.468-1.53-1.212-1.53-.748 0-1.203.58-1.203 1.526zM79.23 12.444a2.133 2.133 0 114.247 0 2.134 2.134 0 11-4.247 0zm3.333 0c0-.976-.438-1.547-1.208-1.547-.772 0-1.207.571-1.207 1.547 0 .984.435 1.55 1.207 1.55.77 0 1.208-.57 1.208-1.55zM84.67 10.195h.855v.715h.066a1.348 1.348 0 011.344-.802 1.465 1.465 0 011.559 1.675v2.915h-.889v-2.692c0-.724-.314-1.084-.972-1.084a1.033 1.033 0 00-1.075 1.141v2.635h-.889zM93.515 9.074v1.141h.976v.749h-.976v2.315c0 .472.194.679.637.679a2.967 2.967 0 00.339-.021v.74a2.916 2.916 0 01-.484.046c-.988 0-1.381-.348-1.381-1.216v-2.543h-.715v-.749h.715V9.074zM95.705 8.437h.88v2.481h.07a1.386 1.386 0 011.374-.806 1.483 1.483 0 011.55 1.679v2.907h-.889V12.01c0-.72-.335-1.084-.963-1.084a1.052 1.052 0 00-1.134 1.142v2.63h-.888zM104.761 13.482a1.828 1.828 0 01-1.95 1.303 2.045 2.045 0 01-2.081-2.325 2.077 2.077 0 012.076-2.352c1.253 0 2.009.856 2.009 2.27v.31h-3.18v.05a1.19 1.19 0 001.2 1.29 1.08 1.08 0 001.07-.546zm-3.126-1.451h2.275a1.086 1.086 0 00-1.109-1.167 1.152 1.152 0 00-1.166 1.167z"/></g></svg><view id="badge-google-play" viewBox="0 40.7 135 40"/><svg fill="none" height="40" width="135" viewBox="0 0 135 40" y="40.7" xmlns="http://www.w3.org/2000/svg"><linearGradient id="ca" gradientUnits="userSpaceOnUse" x1="21.8" x2="5.017" y1="8.71" y2="25.492"><stop offset="0" stop-color="#00a0ff"/><stop offset=".007" stop-color="#00a1ff"/><stop offset=".26" stop-color="#00beff"/><stop offset=".512" stop-color="#00d2ff"/><stop offset=".76" stop-color="#00dfff"/><stop offset="1" stop-color="#00e3ff"/></linearGradient><linearGradient id="cb" gradientUnits="userSpaceOnUse" x1="33.834" x2="9.638" y1="20.001" y2="20.001"><stop offset="0" stop-color="#ffe000"/><stop offset=".409" stop-color="#ffbd00"/><stop offset=".775" stop-color="orange"/><stop offset="1" stop-color="#ff9c00"/></linearGradient><linearGradient id="cc" gradientUnits="userSpaceOnUse" x1="24.827" x2="2.069" y1="22.296" y2="45.054"><stop offset="0" stop-color="#ff3a44"/><stop offset="1" stop-color="#c31162"/></linearGradient><linearGradient id="cd" gradientUnits="userSpaceOnUse" x1="7.297" x2="17.46" y1=".176" y2="10.339"><stop offset="0" stop-color="#32a071"/><stop offset=".069" stop-color="#2da771"/><stop offset=".476" stop-color="#15cf74"/><stop offset=".801" stop-color="#06e775"/><stop offset="1" stop-color="#00f076"/></linearGradient><path d="M130 40H5c-2.75 0-5-2.25-5-5V5c0-2.75 2.25-5 5-5h125c2.75 0 5 2.25 5 5v30c0 2.75-2.25 5-5 5z" fill="#000"/><path d="M130 .8a4.2 4.2 0 014.2 4.2v30a4.2 4.2 0 01-4.2 4.2H5A4.2 4.2 0 01.8 35V5A4.2 4.2 0 015 .8zm0-.8H5C2.25 0 0 2.25 0 5v30c0 2.75 2.25 5 5 5h125c2.75 0 5-2.25 5-5V5c0-2.75-2.25-5-5-5z" fill="#a6a6a6"/><g fill="#fff"><path d="M47.42 10.24c0 .84-.25 1.51-.75 2-.56.59-1.3.89-2.2.89-.87 0-1.6-.3-2.21-.9s-.91-1.35-.91-2.23c0-.89.3-1.63.91-2.23s1.34-.9 2.21-.9c.43 0 .84.08 1.23.25s.7.39.94.67l-.53.53c-.4-.47-.94-.71-1.64-.71-.63 0-1.18.22-1.64.67-.46.44-.69 1.02-.69 1.73s.23 1.29.69 1.73 1.01.67 1.64.67c.67 0 1.23-.22 1.68-.67.29-.29.46-.7.5-1.22h-2.18V9.8h2.91c.02.15.04.3.04.44zM52.03 7.74H49.3v1.9h2.46v.72H49.3v1.9h2.73V13h-3.5V7h3.5zM55.28 13h-.77V7.74h-1.68V7h4.12v.74h-1.68V13zM59.94 13V7h.77v6zM64.13 13h-.77V7.74h-1.68V7h4.12v.74h-1.68V13zM73.61 12.22c-.59.61-1.32.91-2.2.91s-1.61-.3-2.2-.91-.88-1.35-.88-2.22c0-.87.29-1.62.88-2.22.59-.61 1.32-.91 2.2-.91.87 0 1.6.3 2.2.91.59.61.89 1.35.89 2.22-.01.88-.3 1.62-.89 2.22zm-3.83-.5c.44.45.99.67 1.63.67s1.19-.22 1.63-.67.67-1.02.67-1.72-.22-1.27-.67-1.72c-.44-.45-.99-.67-1.63-.67s-1.19.22-1.63.67-.67 1.02-.67 1.72.23 1.27.67 1.72zM75.58 13V7h.94l2.92 4.67h.03l-.03-1.16V7h.77v6h-.8l-3.05-4.89h-.03l.03 1.16V13z" stroke="#fff" stroke-miterlimit="10" stroke-width=".2"/><path d="M68.14 21.75c-2.35 0-4.27 1.79-4.27 4.25 0 2.45 1.92 4.25 4.27 4.25s4.27-1.8 4.27-4.25c0-2.46-1.92-4.25-4.27-4.25zm0 6.83c-1.29 0-2.4-1.06-2.4-2.58 0-1.53 1.11-2.58 2.4-2.58s2.4 1.05 2.4 2.58c0 1.52-1.12 2.58-2.4 2.58zm-9.32-6.83c-2.35 0-4.27 1.79-4.27 4.25 0 2.45 1.92 4.25 4.27 4.25s4.27-1.8 4.27-4.25c0-2.46-1.92-4.25-4.27-4.25zm0 6.83c-1.29 0-2.4-1.06-2.4-2.58 0-1.53 1.11-2.58 2.4-2.58s2.4 1.05 2.4 2.58c0 1.52-1.11 2.58-2.4 2.58zm-11.08-5.52v1.8h4.32c-.13 1.01-.47 1.76-.98 2.27-.63.63-1.61 1.32-3.33 1.32-2.66 0-4.74-2.14-4.74-4.8s2.08-4.8 4.74-4.8c1.43 0 2.48.56 3.25 1.29l1.27-1.27c-1.08-1.03-2.51-1.82-4.53-1.82-3.64 0-6.7 2.96-6.7 6.61 0 3.64 3.06 6.61 6.7 6.61 1.97 0 3.45-.64 4.61-1.85 1.19-1.19 1.56-2.87 1.56-4.22 0-.42-.03-.81-.1-1.13h-6.07zm45.31 1.4c-.35-.95-1.43-2.71-3.64-2.71-2.19 0-4.01 1.72-4.01 4.25 0 2.38 1.8 4.25 4.22 4.25 1.95 0 3.08-1.19 3.54-1.88l-1.45-.97c-.48.71-1.14 1.18-2.09 1.18s-1.63-.44-2.06-1.29l5.69-2.35zm-5.8 1.42c-.05-1.64 1.27-2.48 2.22-2.48.74 0 1.37.37 1.58.9zM82.63 30h1.87V17.5h-1.87zm-3.06-7.3h-.07c-.42-.5-1.22-.95-2.24-.95-2.13 0-4.08 1.87-4.08 4.27 0 2.38 1.95 4.24 4.08 4.24 1.01 0 1.82-.45 2.24-.97h.06v.61c0 1.63-.87 2.5-2.27 2.5-1.14 0-1.85-.82-2.14-1.51l-1.63.68c.47 1.13 1.71 2.51 3.77 2.51 2.19 0 4.04-1.29 4.04-4.43v-7.64h-1.77v.69zm-2.15 5.88c-1.29 0-2.37-1.08-2.37-2.56 0-1.5 1.08-2.59 2.37-2.59 1.27 0 2.27 1.1 2.27 2.59.01 1.48-.99 2.56-2.27 2.56zm24.39-11.08h-4.47V30h1.87v-4.74h2.61c2.07 0 4.1-1.5 4.1-3.88s-2.05-3.88-4.11-3.88zm.04 6.02H99.2v-4.29h2.65c1.4 0 2.19 1.16 2.19 2.14s-.79 2.15-2.19 2.15zm11.54-1.79c-1.35 0-2.75.6-3.33 1.91l1.66.69c.35-.69 1.01-.92 1.7-.92.96 0 1.95.58 1.96 1.61v.13c-.34-.19-1.06-.48-1.95-.48-1.79 0-3.6.98-3.6 2.81 0 1.67 1.46 2.75 3.1 2.75 1.25 0 1.95-.56 2.38-1.22h.06v.97h1.8v-4.79c.01-2.22-1.65-3.46-3.78-3.46zm-.23 6.85c-.61 0-1.46-.31-1.46-1.06 0-.96 1.06-1.33 1.98-1.33.82 0 1.21.18 1.7.42a2.257 2.257 0 01-2.22 1.97zM123.74 22l-2.14 5.42h-.06L119.32 22h-2.01l3.33 7.58-1.9 4.21h1.95L125.82 22zm-16.8 8h1.87V17.5h-1.87z"/></g><path d="M10.44 7.54c-.29.31-.46.79-.46 1.4v22.12c0 .62.17 1.1.46 1.4l.07.07L22.9 20.15v-.3L10.51 7.47z" fill="url(#ca)"/><path d="M27.03 24.28l-4.13-4.13v-.3l4.13-4.13.09.05 4.89 2.78c1.4.79 1.4 2.09 0 2.89l-4.89 2.78z" fill="url(#cb)"/><path d="M27.12 24.22L22.9 20 10.44 32.46c.46.49 1.22.55 2.08.06z" fill="url(#cc)"/><path d="M27.12 15.78l-14.61-8.3c-.86-.49-1.62-.43-2.08.06L22.9 20z" fill="url(#cd)"/><path d="M27.03 24.13l-14.52 8.25c-.81.46-1.54.43-2 .01l-.07.07.07.07c.47.42 1.19.45 2-.01l14.61-8.3z" fill="#000" opacity=".2"/><path d="M10.44 32.32c-.29-.31-.46-.79-.46-1.4v.15c0 .62.17 1.1.46 1.4l.07-.07zM32.01 21.3l-4.99 2.83.09.09L32 21.44c.7-.4 1.05-.92 1.05-1.44-.05.47-.4.94-1.04 1.3z" fill="#000" opacity=".12"/><path d="M12.51 7.62l19.5 11.08c.63.36.99.82 1.05 1.3 0-.52-.35-1.05-1.05-1.44L12.51 7.48c-1.4-.79-2.54-.13-2.54 1.47v.15c0-1.61 1.15-2.27 2.54-1.48z" fill="#fff" opacity=".25"/></svg><view id="bookmark-hover-fill-svg-minicard" viewBox="170 120.7 20 26"/><svg height="26" viewBox="151 340 20 26" width="20" x="170" y="120.7" xmlns="http://www.w3.org/2000/svg"><defs><path id="da" d="M151 340h20v26l-10-6.375L151 366z"/><mask id="db" fill="#fff" height="26" width="20" x="0" y="0"><use xlink:href="#da"/></mask></defs><use fill="#b3b3b3" fill-rule="evenodd" mask="url(#db)" stroke="#b3b3b3" stroke-width="3" xlink:href="#da"/></svg><view id="bookmark-hover-outline-svg-minicard" viewBox="190 120.7 20 25"/><svg width="20" height="25" viewBox="0 0 20 25" x="190" y="120.7" xmlns="http://www.w3.org/2000/svg"><path d="M1 1v22.199l9-5.61 9 5.61V1H1z" stroke="#B3B3B3" stroke-width="2" fill="none"/></svg><view id="icon-bookmark-hover-outline" viewBox="189.664 80.7 26 34"/><svg height="34" viewBox="976 554 26 34" width="26" x="189.664" y="80.7" xmlns="http://www.w3.org/2000/svg"><defs><path id="fa" d="M976 554h26v34l-13-8.337L976 588z"/><mask id="fb" fill="#fff" height="34" width="26" x="0" y="0"><use xlink:href="#fa"/></mask></defs><use fill="none" mask="url(#fb)" stroke="#b3b3b3" stroke-width="6" xlink:href="#fa"/></svg><view id="nutritional-info-hollow" viewBox="0 155.7 22 22"/><svg width="22" height="22" viewBox="0 0 22 22" y="155.7" xmlns="http://www.w3.org/2000/svg"><g transform="translate(.5 .5)" fill="none" fill-rule="evenodd"><text font-family="NYTCheltenham" font-size="16" font-weight="bold" fill="#E33D26"><tspan x="8.5" y="16">i</tspan></text><rect stroke="#E33D26" width="21" height="21" rx="40"/></g></svg><view id="nutritional-info-red" viewBox="22 155.7 22 22"/><svg width="22" height="22" viewBox="0 0 22 22" x="22" y="155.7" xmlns="http://www.w3.org/2000/svg"><g transform="translate(.5 .5)" fill="none" fill-rule="evenodd"><rect fill="#E33D26" width="21" height="21" rx="40"/><text font-family="NYTCheltenham" font-size="16" font-weight="bold" fill="#FFF"><tspan x="8.5" y="16">i</tspan></text></g></svg><view id="rdp-email" viewBox="135 40.7 35 35"/><svg height="35" width="35" viewBox="0 0 35 35" x="135" y="40.7" xmlns="http://www.w3.org/2000/svg"><g fill="none" fill-rule="evenodd"><rect fill="#b7b4b4" height="35" rx="100" width="35"/><path d="M23.892 14.432l.01.008-5.893 4.718a.822.822 0 01-1.019 0l-5.892-4.718.009-.008c-.017-.012-.023-.029-.037-.042v-1.082h1.152l5.278 4.225 5.278-4.225h1.151v1.082c-.013.013-.02.03-.037.042zM10 23h15V12H10z" fill="#fff"/></g></svg><view id="rdp-email-active" viewBox="170 40.7 35 35"/><svg height="35" width="35" viewBox="0 0 35 35" x="170" y="40.7" xmlns="http://www.w3.org/2000/svg"><g fill="none" fill-rule="evenodd"><rect fill="#9b9b9b" height="35" rx="100" width="35"/><path d="M23.892 14.432l.01.008-5.893 4.718a.822.822 0 01-1.019 0l-5.892-4.718.009-.008c-.017-.012-.023-.029-.037-.042v-1.082h1.152l5.278 4.225 5.278-4.225h1.151v1.082c-.013.013-.02.03-.037.042zM10 23h15V12H10z" fill="#fff"/></g></svg><view id="rdp-facebook" viewBox="119.664 80.7 35 35"/><svg height="35" width="35" viewBox="0 0 35 35" x="119.664" y="80.7" xmlns="http://www.w3.org/2000/svg"><g fill="none" fill-rule="evenodd"><rect fill="#6d81b8" height="35" rx="100" width="35"/><path d="M15.985 26v-7.509H14V15.79h1.985v-2.31c0-1.813 1.172-3.479 3.875-3.479 1.093 0 1.901.105 1.901.105l-.062 2.523s-.825-.007-1.727-.007c-.973 0-1.13.45-1.13 1.194v1.974h2.934l-.127 2.702h-2.806V26z" fill="#fff"/></g></svg><view id="rdp-facebook-active" viewBox="154.664 80.7 35 35"/><svg height="35" width="35" viewBox="0 0 35 35" x="154.664" y="80.7" xmlns="http://www.w3.org/2000/svg"><g fill="none" fill-rule="evenodd"><rect fill="#455b94" height="35" rx="100" width="35"/><path d="M15.985 26v-7.509H14V15.79h1.985v-2.31c0-1.813 1.172-3.479 3.875-3.479 1.093 0 1.901.105 1.901.105l-.062 2.523s-.825-.007-1.727-.007c-.973 0-1.13.45-1.13 1.194v1.974h2.934l-.127 2.702h-2.806V26z" fill="#fff"/></g></svg><view id="rdp-pinterest" viewBox="0 120.7 35 35"/><svg height="35" width="35" viewBox="0 0 35 35" y="120.7" xmlns="http://www.w3.org/2000/svg"><g fill="none" fill-rule="evenodd"><rect fill="#e34c5c" height="35" rx="100" width="35"/><path d="M11.5 16.064c0 1.67.629 3.155 1.976 3.709.22.09.418.003.482-.243.045-.17.15-.6.197-.78.065-.243.04-.328-.139-.54-.388-.462-.636-1.059-.636-1.904 0-2.453 1.823-4.65 4.749-4.65 2.59 0 4.013 1.594 4.013 3.72 0 2.8-1.23 5.162-3.057 5.162-1.01 0-1.765-.84-1.523-1.87.29-1.23.851-2.557.851-3.445 0-.794-.424-1.457-1.3-1.457-1.032 0-1.861 1.074-1.861 2.512 0 .917.308 1.536.308 1.536l-1.24 5.29c-.369 1.57-.056 3.495-.03 3.689.016.115.163.143.23.056.095-.125 1.323-1.652 1.742-3.177.117-.432.677-2.668.677-2.668.336.643 1.315 1.21 2.356 1.21 3.102 0 5.205-2.845 5.205-6.653 0-2.88-2.423-5.561-6.107-5.561-4.582 0-6.893 3.307-6.893 6.064z" fill="#fff"/></g></svg><view id="rdp-pinterest-active" viewBox="35 120.7 35 35"/><svg height="35" width="35" viewBox="0 0 35 35" x="35" y="120.7" xmlns="http://www.w3.org/2000/svg"><g fill="none" fill-rule="evenodd"><rect fill="#ce1910" height="35" rx="100" width="35"/><path d="M11.5 16.064c0 1.67.629 3.155 1.976 3.709.22.09.418.003.482-.243.045-.17.15-.6.197-.78.065-.243.04-.328-.139-.54-.388-.462-.636-1.059-.636-1.904 0-2.453 1.823-4.65 4.749-4.65 2.59 0 4.013 1.594 4.013 3.72 0 2.8-1.23 5.162-3.057 5.162-1.01 0-1.765-.84-1.523-1.87.29-1.23.851-2.557.851-3.445 0-.794-.424-1.457-1.3-1.457-1.032 0-1.861 1.074-1.861 2.512 0 .917.308 1.536.308 1.536l-1.24 5.29c-.369 1.57-.056 3.495-.03 3.689.016.115.163.143.23.056.095-.125 1.323-1.652 1.742-3.177.117-.432.677-2.668.677-2.668.336.643 1.315 1.21 2.356 1.21 3.102 0 5.205-2.845 5.205-6.653 0-2.88-2.423-5.561-6.107-5.561-4.582 0-6.893 3.307-6.893 6.064z" fill="#fff"/></g></svg><view id="rdp-print" viewBox="44 155.7 20 17"/><svg height="17" width="20" viewBox="0 0 20 17" x="44" y="155.7" xmlns="http://www.w3.org/2000/svg"><path d="M4.05 17H17v-2H3v2zM17 5V0H3v5h2V2h10v3zM3 5S0 5 0 7.5v5S0 15 3 15h2v-5h10l.014 5H17s3 0 3-2.5v-5S20 5 17 5z" fill="#fff" fill-rule="evenodd"/></svg><view id="rdp-twitter" viewBox="70 120.7 35 35"/><svg height="35" width="35" viewBox="0 0 35 35" x="70" y="120.7" xmlns="http://www.w3.org/2000/svg"><g fill="none" fill-rule="evenodd"><rect fill="#74b8ee" height="35" rx="100" width="35"/><path d="M26 13.421a6.247 6.247 0 01-1.768.477 3.05 3.05 0 001.354-1.676c-.595.347-1.255.6-1.954.737A3.092 3.092 0 0021.386 12c-1.7 0-3.078 1.357-3.078 3.03 0 .239.026.469.08.69a8.772 8.772 0 01-6.343-3.165 2.974 2.974 0 00-.417 1.523c0 1.052.542 1.978 1.368 2.521a3.09 3.09 0 01-1.392-.378c-.002.012-.002.025-.002.038 0 1.469 1.062 2.692 2.47 2.97a3.084 3.084 0 01-1.39.052 3.074 3.074 0 002.874 2.105 6.241 6.241 0 01-3.822 1.296A6.4 6.4 0 0111 22.64a8.812 8.812 0 004.717 1.361c5.66 0 8.757-4.617 8.757-8.62 0-.131-.003-.261-.01-.392A6.204 6.204 0 0026 13.421" fill="#fff"/></g></svg><view id="rdp-twitter-active" viewBox="105 120.7 35 35"/><svg height="35" width="35" viewBox="0 0 35 35" x="105" y="120.7" xmlns="http://www.w3.org/2000/svg"><g fill="none" fill-rule="evenodd"><rect fill="#4baaf4" height="35" rx="100" width="35"/><path d="M26 13.421a6.247 6.247 0 01-1.768.477 3.05 3.05 0 001.354-1.676c-.595.347-1.255.6-1.954.737A3.092 3.092 0 0021.386 12c-1.7 0-3.078 1.357-3.078 3.03 0 .239.026.469.08.69a8.772 8.772 0 01-6.343-3.165 2.974 2.974 0 00-.417 1.523c0 1.052.542 1.978 1.368 2.521a3.09 3.09 0 01-1.392-.378c-.002.012-.002.025-.002.038 0 1.469 1.062 2.692 2.47 2.97a3.084 3.084 0 01-1.39.052 3.074 3.074 0 002.874 2.105 6.241 6.241 0 01-3.822 1.296A6.4 6.4 0 0111 22.64a8.812 8.812 0 004.717 1.361c5.66 0 8.757-4.617 8.757-8.62 0-.131-.003-.261-.01-.392A6.204 6.204 0 0026 13.421" fill="#fff"/></g></svg><view id="save-white-outline" viewBox="205 40.7 12 17"/><svg width="12" height="17" viewBox="0 0 12 17" x="205" y="40.7" xmlns="http://www.w3.org/2000/svg"><path d="M1 1v14.088l5-3.474 5 3.474V1H1z" stroke="#FFF" stroke-width="2" fill="none"/></svg><view id="search-icon-black" viewBox="205 57.7 16 16"/><svg height="16" width="16" viewBox="0 0 16 16" x="205" y="57.7" xmlns="http://www.w3.org/2000/svg"><path d="M15.56 13.44l-3.532-3.534A6.46 6.46 0 0013 6.5 6.5 6.5 0 106.5 13a6.46 6.46 0 003.407-.973l3.533 3.533c.292.293.676.44 1.06.44s.768-.147 1.06-.44a1.496 1.496 0 000-2.12M6.5 11a4.5 4.5 0 110-9 4.5 4.5 0 010 9" fill="#222" fill-rule="evenodd"/></svg><view id="search-icon-red" viewBox="64 155.7 16 16"/><svg height="16" width="16" viewBox="0 0 16 16" x="64" y="155.7" xmlns="http://www.w3.org/2000/svg"><path d="M15.56 13.44l-3.532-3.534A6.46 6.46 0 0013 6.5 6.5 6.5 0 106.5 13a6.46 6.46 0 003.407-.973l3.533 3.533c.292.293.676.44 1.06.44s.768-.147 1.06-.44a1.496 1.496 0 000-2.12M6.5 11a4.5 4.5 0 110-9 4.5 4.5 0 010 9" fill="#e53d1a" fill-rule="evenodd"/></svg><view id="video-icon-white" viewBox="140 120.7 30 30"/><svg width="30" height="30" viewBox="0 0 30 30" x="140" y="120.7" xmlns="http://www.w3.org/2000/svg"><g fill="#FFF" fill-rule="evenodd"><path d="M10 22.5v-15L24 15l-14 7.5z"/><path d="M15 28.464c7.436 0 13.464-6.028 13.464-13.464 0-7.436-6.028-13.464-13.464-13.464C7.564 1.536 1.536 7.564 1.536 15c0 7.436 6.028 13.464 13.464 13.464zM.5 15C.5 6.992 6.992.5 15 .5S29.5 6.992 29.5 15 23.008 29.5 15 29.5.5 23.008.5 15z"/></g></svg></svg>